<svg width="328" height="487" xmlns="http://www.w3.org/2000/svg" xmlns:xlink="http://www.w3.org/1999/xlink" xml:space="preserve" overflow="hidden"><g transform="translate(-1472 -755)"><path d="M1493.74 1006.47C1465.99 978.728 1465.99 933.747 1493.74 906.003L1623.41 776.332C1651.15 748.588 1696.13 748.588 1723.88 776.332L1723.88 776.332C1751.62 804.075 1751.62 849.056 1723.88 876.8L1594.21 1006.47C1566.46 1034.21 1521.48 1034.21 1493.74 1006.47Z" fill="#0B8BEE" fill-rule="evenodd"/><path d="M1492.62 1004.74 1722.48 774.88 1796.09 848.49 1566.23 1078.35Z" fill="#FFCD00" fill-rule="evenodd"/><path d="M1696.23 988.031 1799.45 1091.25 1649.7 1240.99 1517.19 1240.99 1480.23 1204.03Z" fill="#FFCD00" fill-rule="evenodd"/><path d="M1584.54 1174.45 1651.63 1241.54 1517.44 1241.54Z" fill="#0B8BEE" fill-rule="evenodd"/></g></svg>