<?xml version="1.0" encoding="UTF-8" standalone="no"?><!DOCTYPE svg PUBLIC "-//W3C//DTD SVG 1.1//EN" "http://www.w3.org/Graphics/SVG/1.1/DTD/svg11.dtd"><svg width="100%" height="100%" viewBox="0 0 950 199" version="1.1" xmlns="http://www.w3.org/2000/svg" xmlns:xlink="http://www.w3.org/1999/xlink" xml:space="preserve" xmlns:serif="http://www.serif.com/" style="fill-rule:evenodd;clip-rule:evenodd;stroke-linecap:square;stroke-linejoin:round;stroke-miterlimit:1.5;"><g><path d="M153.771,185.883c0,5.702 -4.622,10.324 -10.324,10.324c-23.47,0 -80.607,0 -104.077,0c-5.702,0 -10.324,-4.622 -10.324,-10.324c0,-18.305 0,-56.241 0,-74.546c0,-5.702 -4.622,-10.324 -10.324,-10.324c-2.043,0 -4.187,0 -6.229,0c-5.702,0 -10.324,-4.623 -10.324,-10.325c0,-18.972 0,-59.173 0,-78.146c0,-2.738 1.088,-5.364 3.024,-7.3c1.936,-1.936 4.562,-3.024 7.3,-3.024c27.673,0 103.28,0 130.954,0c2.738,0 5.364,1.088 7.3,3.024c1.936,1.936 3.024,4.562 3.024,7.3c0,33.62 0,139.722 0,173.341Z" style="fill:#303030;"/><g><path d="M114.812,177.03l-5.417,3.6l5.417,3.6" style="fill:none;stroke:#fff;stroke-width:1.5px;"/><path d="M130.105,167.826c0,0 2.59,0 4.971,0c2.155,0 3.903,1.747 3.903,3.902c0,1.586 0,3.414 0,4.999c0,1.035 -0.412,2.028 -1.143,2.76c-0.732,0.732 -1.725,1.143 -2.76,1.143c-7.854,0 -24.828,0 -24.828,0" style="fill:none;stroke:#fff;stroke-width:1.5px;stroke-linejoin:miter;"/></g><path d="M30.216,59.302l0,-32.344l7.137,0l0,35.578c0,2.555 0.07,4.377 0.211,5.467c0.141,1.09 0.387,1.928 0.738,2.514c0.75,1.383 1.834,2.426 3.252,3.129c1.418,0.703 4.095,1.054 6.111,1.054c2.039,0 4.721,-0.351 6.128,-1.054c1.406,-0.703 2.496,-1.746 3.269,-3.129c0.352,-0.586 0.598,-1.418 0.739,-2.496c0.14,-1.078 0.21,-2.883 0.21,-5.414l0,-35.649l7.102,0l0,32.344c0,5.367 -0.334,9.182 -1.002,11.443c-0.668,2.262 -1.822,4.131 -3.463,5.608c-1.547,1.383 -3.316,2.414 -5.308,3.094c-1.993,0.679 -5.191,1.019 -7.675,1.019c-2.461,0 -5.648,-0.34 -7.64,-1.019c-1.992,-0.68 -3.773,-1.711 -5.344,-3.094c-1.617,-1.453 -2.765,-3.334 -3.445,-5.643c-0.68,-2.308 -1.02,-6.111 -1.02,-11.408Z" style="fill:#fff;fill-rule:nonzero;"/><path d="M87.934,26.958l40.043,0l0,5.977l-16.418,0l0,46.512l-7.137,0l0,-46.512l-16.488,0l0,-5.977Z" style="fill:#fff;fill-rule:nonzero;"/><rect x="52.738" y="141.267" width="12.375" height="14.203" style="fill:#fff;fill-rule:nonzero;"/><path d="M125.573,152.587c-1.804,0.961 -3.656,1.681 -5.554,2.162c-1.899,0.48 -3.914,0.721 -6.047,0.721c-6.727,0 -11.947,-2.379 -15.662,-7.137c-3.715,-4.758 -5.573,-11.449 -5.573,-20.074c0,-8.578 1.87,-15.264 5.608,-20.057c3.738,-4.793 8.947,-7.189 15.627,-7.189c2.133,0 4.148,0.24 6.047,0.72c1.898,0.481 3.75,1.201 5.554,2.162l0,7.278c-1.734,-1.43 -3.597,-2.52 -5.589,-3.27c-1.993,-0.75 -3.997,-1.125 -6.012,-1.125c-4.617,0 -8.074,1.781 -10.371,5.344c-2.297,3.562 -3.446,8.941 -3.446,16.137c0,7.172 1.149,12.539 3.446,16.101c2.297,3.563 5.754,5.344 10.371,5.344c2.062,0 4.084,-0.375 6.064,-1.125c1.981,-0.75 3.826,-1.84 5.537,-3.27l0,7.278Z" style="fill:#fff;fill-rule:nonzero;"/></g><g><path d="M204.006,118.278l0,-46.086l12.219,0l0,46.086c0,6.685 1.184,11.599 3.553,14.742c2.368,3.144 6.032,4.715 10.99,4.715c5.755,0 10.16,-2.025 13.215,-6.076c3.054,-4.051 4.582,-9.861 4.582,-17.432l0,-42.035l12.285,0l0,74.242l-12.285,0l0,-11.156c-2.17,4.294 -5.125,7.548 -8.865,9.762c-3.741,2.213 -8.113,3.32 -13.116,3.32c-7.614,0 -13.281,-2.49 -17,-7.47c-3.718,-4.981 -5.578,-12.518 -5.578,-22.612Z" style="fill:#676767;fill-rule:nonzero;"/><path d="M310.309,50.942l0,21.117l27.758,0l0,9.497l-27.758,0l0,40.375c0,5.489 1.041,9.319 3.121,11.488c2.081,2.169 5.711,3.254 10.891,3.254l13.746,0l0,9.761l-14.941,0c-9.164,0 -15.628,-1.837 -19.391,-5.511c-3.763,-3.675 -5.644,-10.005 -5.644,-18.992l0,-40.375l-19.856,0l0,-9.497l19.856,0l0,-21.117l12.218,0Z" style="fill:#676767;fill-rule:nonzero;"/><rect x="373.847" y="119.606" width="23.375" height="26.828" style="fill:#676767;fill-rule:nonzero;"/><path d="M496.951,142.649c-3.276,1.904 -6.652,3.332 -10.127,4.284c-3.476,0.951 -7.028,1.427 -10.658,1.427c-11.511,0 -20.509,-3.453 -26.995,-10.359c-6.485,-6.906 -9.728,-16.469 -9.728,-28.688c0,-12.218 3.243,-21.781 9.728,-28.687c6.486,-6.906 15.484,-10.359 26.995,-10.359c3.585,0 7.083,0.464 10.492,1.394c3.409,0.93 6.84,2.369 10.293,4.316l0,12.817c-3.232,-2.878 -6.475,-4.958 -9.729,-6.242c-3.254,-1.284 -6.939,-1.926 -11.056,-1.926c-7.659,0 -13.547,2.479 -17.665,7.437c-4.117,4.959 -6.175,12.042 -6.175,21.25c0,9.164 2.069,16.237 6.209,21.217c4.139,4.981 10.016,7.471 17.631,7.471c4.25,0 8.057,-0.653 11.421,-1.959c3.365,-1.306 6.486,-3.331 9.364,-6.076l0,12.683Z" style="fill:#00d372;fill-rule:nonzero;"/><path d="M545.879,80.626c-6.198,0 -10.891,2.413 -14.078,7.238c-3.188,4.826 -4.782,11.975 -4.782,21.449c0,9.43 1.594,16.569 4.782,21.416c3.187,4.848 7.88,7.272 14.078,7.272c6.242,0 10.957,-2.424 14.144,-7.272c3.188,-4.847 4.782,-11.986 4.782,-21.416c0,-9.474 -1.594,-16.623 -4.782,-21.449c-3.187,-4.825 -7.902,-7.238 -14.144,-7.238Zm0,-10.359c10.315,0 18.206,3.342 23.674,10.027c5.467,6.685 8.201,16.358 8.201,29.019c0,12.706 -2.723,22.39 -8.168,29.053c-5.445,6.663 -13.348,9.994 -23.707,9.994c-10.315,0 -18.195,-3.331 -23.641,-9.994c-5.445,-6.663 -8.168,-16.347 -8.168,-29.053c0,-12.661 2.723,-22.334 8.168,-29.019c5.446,-6.685 13.326,-10.027 23.641,-10.027Z" style="fill:#00d372;fill-rule:nonzero;"/><path d="M640.428,81.556l0,-38.45l12.219,0l0,103.328l-12.219,0l0,-9.363c-2.036,3.675 -4.748,6.475 -8.135,8.401c-3.386,1.925 -7.293,2.888 -11.72,2.888c-8.987,0 -16.06,-3.486 -21.217,-10.459c-5.158,-6.972 -7.737,-16.59 -7.737,-28.853c0,-12.086 2.59,-21.571 7.77,-28.455c5.18,-6.884 12.241,-10.326 21.184,-10.326c4.471,0 8.411,0.962 11.82,2.888c3.409,1.926 6.087,4.726 8.035,8.401Zm-35.926,27.757c0,9.474 1.505,16.624 4.516,21.45c3.01,4.825 7.46,7.238 13.348,7.238c5.888,0 10.37,-2.435 13.447,-7.305c3.077,-4.87 4.615,-11.997 4.615,-21.383c0,-9.429 -1.538,-16.568 -4.615,-21.416c-3.077,-4.847 -7.559,-7.271 -13.447,-7.271c-5.888,0 -10.338,2.413 -13.348,7.238c-3.011,4.826 -4.516,11.975 -4.516,21.449Z" style="fill:#00d372;fill-rule:nonzero;"/><path d="M736.305,103.138l0,5.976l-52.925,0l0,0.399c-0.355,10.138 1.582,17.42 5.81,21.847c4.228,4.427 10.194,6.641 17.897,6.641c3.895,0 7.968,-0.62 12.218,-1.859c4.25,-1.24 8.788,-3.122 13.614,-5.645l0,12.152c-4.649,1.904 -9.131,3.332 -13.448,4.284c-4.316,0.951 -8.489,1.427 -12.517,1.427c-11.555,0 -20.586,-3.464 -27.094,-10.392c-6.508,-6.929 -9.762,-16.48 -9.762,-28.655c0,-11.864 3.188,-21.338 9.563,-28.421c6.375,-7.084 14.875,-10.625 25.5,-10.625c9.474,0 16.945,3.209 22.412,9.628c5.467,6.42 8.378,14.167 8.732,23.243Zm-12.218,-3.586c-0.532,-5.136 -2.402,-9.574 -5.612,-13.315c-3.209,-3.741 -7.825,-5.611 -13.845,-5.611c-5.888,0 -10.736,1.948 -14.543,5.844c-3.808,3.895 -5.888,8.278 -6.243,13.148l40.243,-0.066Z" style="fill:#00d372;fill-rule:nonzero;"/><path d="M797.187,36.599c-5.888,10.093 -10.282,20.154 -13.182,30.181c-2.9,10.028 -4.35,20.132 -4.35,30.315c0,10.138 1.45,20.231 4.35,30.281c2.9,10.049 7.294,20.165 13.182,30.348l-10.625,0c-6.685,-10.537 -11.666,-20.797 -14.942,-30.78c-3.276,-9.983 -4.914,-19.933 -4.914,-29.849c0,-9.873 1.638,-19.812 4.914,-29.817c3.276,-10.005 8.257,-20.232 14.942,-30.679l10.625,0Z" style="fill:#676767;fill-rule:nonzero;"/><path d="M841.998,36.599l10.625,0c6.684,10.447 11.665,20.674 14.941,30.679c3.276,10.005 4.914,19.944 4.914,29.817c0,9.961 -1.638,19.944 -4.914,29.949c-3.276,10.005 -8.257,20.232 -14.941,30.68l-10.625,0c5.888,-10.271 10.281,-20.431 13.181,-30.481c2.9,-10.049 4.35,-20.099 4.35,-30.148c0,-10.094 -1.45,-20.166 -4.35,-30.215c-2.9,-10.05 -7.293,-20.143 -13.181,-30.281Z" style="fill:#676767;fill-rule:nonzero;"/><path d="M926.719,122.462l20.718,0l0,17.597l-13.082,25.368l-14.211,0l6.575,-25.368l0,-17.597Zm-0.864,-50.336l20.719,0l0,23.973l-20.719,0l0,-23.973Z" style="fill:#676767;fill-rule:nonzero;"/></g></svg>